<svg width="283" height="34" viewBox="0 0 283 34" fill="none" xmlns="http://www.w3.org/2000/svg">
<path d="M7.38073 8.43563C13.3737 0.998956 20.6429 0 28.9664 0H78.1861L77.9641 0.499478C75.911 5.27227 71.3608 8.26913 65.7563 8.43563H23.5283C17.9238 8.43563 11.598 9.71207 8.32406 12.6534C5.05015 15.5948 4.16231 16.5938 0.000549316 23.642C1.83172 17.6482 5.8825 10.3225 7.38073 8.43563Z" fill="#8DD7F7"/>
<path d="M25.4706 27.9154C28.6336 27.8044 31.1861 26.1394 32.3514 23.4201L32.4624 23.1426H18.4789C13.7622 23.1426 9.60045 24.863 6.71497 27.9154H25.4706Z" fill="#144880"/>
<path d="M5.54963 20.0344C11.5426 12.5978 18.0349 11.6543 26.3584 11.6543H42.3396L42.1176 12.1538C40.0645 16.9266 35.5143 19.9234 29.9098 20.0899H20.9204C15.3159 20.0899 10.0443 21.5329 5.7161 24.3077L0.000625488 27.9706C-0.0548646 27.9151 3.99591 21.9213 5.54963 20.0344Z" fill="#0A8FCF"/>
<path d="M47.1672 22.3099C47.1672 22.8648 47.2782 23.3643 47.4447 23.6973C47.6111 24.0303 47.8886 24.3633 48.2215 24.5853C48.5545 24.8073 48.9429 24.9737 49.3313 25.0292C49.7753 25.0847 50.2192 25.1402 50.7186 25.1402C51.4954 25.1402 52.1613 25.0292 52.8272 24.7518C53.4931 24.5298 54.048 24.0858 54.6029 23.5308L54.7694 23.3643L57.4884 24.5853L57.2109 24.9182C56.3231 25.9727 55.3243 26.8052 54.159 27.3046C52.9937 27.8041 51.7174 28.0261 50.3302 28.0261C49.3313 28.0261 48.4435 27.9151 47.6666 27.6931C46.8898 27.4711 46.2239 27.1381 45.669 26.6942C45.1141 26.2502 44.6702 25.6397 44.3927 24.9182C44.1153 24.1968 43.9488 23.3088 43.9488 22.3099C43.9488 20.9224 44.1708 19.646 44.5592 18.425C44.9476 17.2041 45.558 16.1496 46.3349 15.2062C47.1117 14.2627 48.0551 13.5412 49.2203 12.9863C50.3856 12.4313 51.7174 12.1538 53.2156 12.1538C53.937 12.1538 54.6584 12.2648 55.3798 12.4313C56.0456 12.5978 56.656 12.8753 57.2109 13.2083C57.7103 13.5412 58.1543 14.0407 58.4317 14.5957C58.7646 15.1507 58.8756 15.8721 58.8756 16.7046C58.8756 17.7036 58.6537 18.536 58.2652 19.1465C57.8768 19.757 57.3219 20.2565 56.656 20.6449C55.9901 21.0334 55.2133 21.3109 54.3254 21.4774C53.4376 21.6439 52.4943 21.7549 51.4954 21.8104L47.1672 22.3099ZM47.5556 19.3685L51.8284 19.091C52.2723 19.091 52.6607 19.0355 53.1601 18.98C53.6041 18.9245 53.9925 18.8135 54.3809 18.647C54.7694 18.4805 55.0468 18.2585 55.2688 17.9256C55.4907 17.6481 55.6017 17.2596 55.6017 16.7601C55.6017 16.4271 55.4907 16.0941 55.3243 15.9276C55.1023 15.7057 54.8803 15.5392 54.5474 15.4282C54.27 15.3172 53.937 15.2617 53.6041 15.2062C53.2711 15.1507 52.9382 15.1507 52.7162 15.1507C51.3845 15.1507 50.2192 15.5392 49.3313 16.3716C48.499 17.1486 47.8886 18.1475 47.5556 19.3685Z" fill="black"/>
<path d="M70.806 22.9207L72.4707 13.1531L75.9666 12.2096L73.9134 23.9196C73.8579 24.1416 73.8579 24.3636 73.8025 24.5856C73.8025 24.8076 73.747 24.9741 73.747 25.1961C73.747 25.5845 73.8025 25.973 73.858 26.3615C73.9689 26.75 74.0799 27.194 74.2464 27.6379H70.806C70.6395 27.416 70.584 27.194 70.5285 26.972C70.4731 26.8055 70.4176 26.528 70.4176 26.2505C69.7517 26.75 69.0858 27.1385 68.3644 27.4715C67.6431 27.8044 66.8107 27.9709 65.9784 27.9709C64.2582 27.9709 62.9819 27.6379 62.205 26.9165C61.4282 26.195 61.0397 25.1406 61.0397 23.7531C61.0397 23.4756 61.0397 23.1981 61.0952 22.9207C61.0952 22.6432 61.1507 22.3657 61.2062 22.0327L62.7599 13.0421L66.2558 12.0986L64.4801 22.1437C64.4246 22.3657 64.4246 22.5322 64.3691 22.7542C64.3691 22.9762 64.3137 23.1426 64.3137 23.3091C64.3137 23.8086 64.4801 24.2526 64.7576 24.5856C65.035 24.9186 65.5899 25.0851 66.3668 25.0851C66.7552 25.0851 67.1436 25.0296 67.5876 24.8631L68.7529 24.3636C69.1413 24.1416 69.4742 23.9196 69.8072 23.6421C70.1956 23.4201 70.4731 23.1426 70.806 22.9207Z" fill="black"/>
<path d="M95.6101 9.76769L93.0021 11.7101C92.3362 10.8776 91.5593 10.3227 90.6715 10.1007C89.7836 9.82318 88.8958 9.71219 87.897 9.71219C87.3975 9.71219 86.8981 9.76769 86.3987 9.82318C85.8993 9.93418 85.4554 10.0452 85.067 10.2672C84.6785 10.4892 84.3456 10.7666 84.1236 11.1551C83.8462 11.4881 83.7352 11.9321 83.7352 12.4871C83.7352 13.2085 84.0127 13.7635 84.5121 14.2075C85.0115 14.6515 85.6774 14.9845 86.4542 15.2619C87.2311 15.5394 88.1189 15.8169 89.0068 16.0944C89.8946 16.3719 90.7824 16.7049 91.5593 17.0934C92.3362 17.5373 93.002 18.0368 93.5015 18.7028C94.0009 19.3688 94.2783 20.2012 94.2783 21.3112C94.2783 22.4766 94.0564 23.4756 93.6124 24.3635C93.1685 25.196 92.5581 25.9175 91.7258 26.4725C90.9489 27.0274 90.0611 27.4159 89.0068 27.6934C88.0079 27.9709 86.8981 28.0819 85.7883 28.0819C84.9005 28.0819 84.0127 27.9709 83.1803 27.8044C82.3479 27.5824 81.5156 27.3049 80.7942 26.9164C80.0729 26.5279 79.407 26.0285 78.8521 25.418C78.2972 24.8075 77.8533 24.0861 77.5758 23.3091L80.6278 21.9771C81.0717 22.9206 81.7931 23.6976 82.6809 24.1971C83.6242 24.752 84.734 25.0295 86.0658 25.0295C86.6207 25.0295 87.1756 24.974 87.7305 24.863C88.2854 24.752 88.8403 24.5855 89.2842 24.308C89.7281 24.0861 90.1166 23.7531 90.394 23.3091C90.6715 22.9206 90.8379 22.4211 90.8379 21.8107C90.8379 21.1447 90.5605 20.6452 90.0611 20.2012C89.5062 19.8127 88.8958 19.4798 88.0634 19.2023C87.2866 18.9248 86.3987 18.6473 85.5109 18.3698C84.5676 18.0923 83.7352 17.7593 82.9583 17.3154C82.1815 16.8714 81.5156 16.3164 80.9607 15.6504C80.4058 14.9845 80.1838 14.0965 80.1838 12.9865C80.1838 11.8211 80.4058 10.8221 80.8497 9.98968C81.2936 9.15721 81.904 8.54674 82.6809 7.99176C83.4578 7.49229 84.3456 7.1038 85.3444 6.88181C86.3432 6.65982 87.3975 6.54883 88.4519 6.54883C89.9501 6.54883 91.3373 6.82632 92.6136 7.38129C93.8899 7.93627 94.8887 8.71323 95.6101 9.76769Z" fill="black"/>
<path d="M101.381 18.4808L99.7718 27.6934H96.4979L100.105 7.43679L103.545 6.54883L102.213 13.93C102.768 13.486 103.434 13.153 104.156 12.931C104.877 12.7091 105.598 12.6536 106.32 12.6536C107.041 12.6536 107.707 12.7646 108.317 12.9865C108.928 13.2085 109.427 13.5415 109.871 13.9855C110.315 14.4295 110.648 14.929 110.87 15.4839C111.147 16.0944 111.258 16.7049 111.258 17.4263C111.258 17.8703 111.203 18.2588 111.147 18.6473L109.538 27.6934H106.264L107.929 18.2033C107.984 18.0923 107.984 17.9813 107.984 17.8703V17.5373C107.984 16.9269 107.762 16.4829 107.374 16.0944C106.986 15.7059 106.431 15.5394 105.82 15.5394C104.821 15.5394 103.934 15.8169 103.101 16.3164C102.269 16.8159 101.714 17.5373 101.381 18.4808Z" fill="black"/>
<path d="M113.311 27.6934L115.975 12.5981H119.249L116.585 27.6934H113.311ZM118.084 6.54883C118.583 6.54883 118.971 6.71532 119.36 7.04831C119.693 7.38129 119.915 7.76977 119.915 8.26925C119.915 8.76873 119.748 9.21271 119.415 9.5457C119.082 9.87868 118.638 10.0452 118.139 10.0452C117.64 10.0452 117.196 9.87868 116.863 9.5457C116.53 9.21271 116.363 8.76873 116.363 8.26925C116.363 7.76977 116.53 7.38129 116.918 7.04831C117.196 6.71532 117.584 6.54883 118.084 6.54883Z" fill="black"/>
<path d="M123.966 26.4168L122.745 33.465H119.471L122.523 16.5938C122.523 16.3718 122.578 16.2053 122.578 15.9833C122.634 15.8168 122.634 15.6503 122.634 15.4838C122.634 14.8734 122.467 14.2074 122.134 13.5969L125.353 12.2095C125.63 12.709 125.797 13.2084 125.852 13.7634C126.463 13.2639 127.128 12.8754 127.905 12.598C128.682 12.3205 129.459 12.2095 130.236 12.2095C131.013 12.2095 131.734 12.3205 132.4 12.598C133.066 12.8754 133.676 13.2639 134.176 13.7079C134.675 14.2074 135.064 14.7624 135.396 15.4283C135.674 16.0943 135.84 16.8158 135.84 17.6482C135.84 18.9247 135.674 20.2011 135.396 21.4221C135.119 22.643 134.62 23.753 134.009 24.7519C133.343 25.6954 132.511 26.5278 131.512 27.0828C130.513 27.6933 129.293 27.9708 127.85 27.9708C127.128 27.9708 126.463 27.8043 125.797 27.5268C125.075 27.3048 124.465 26.9163 123.966 26.4168ZM125.63 16.7603L124.52 23.087C124.964 23.642 125.464 24.1414 126.13 24.5299C126.74 24.9739 127.406 25.1404 128.183 25.1404C129.071 25.1404 129.792 24.9184 130.402 24.4744C130.957 24.0304 131.401 23.42 131.734 22.6985C132.067 21.977 132.289 21.2556 132.4 20.4231C132.511 19.5906 132.622 18.8137 132.622 18.1477C132.622 17.2043 132.4 16.4273 131.901 15.9278C131.401 15.3728 130.68 15.1508 129.736 15.1508C128.96 15.1508 128.238 15.3173 127.572 15.5948C126.851 15.8168 126.241 16.2608 125.63 16.7603Z" fill="black"/>
<path d="M143.332 13.8191C143.886 13.3751 144.552 12.9866 145.163 12.7091C145.829 12.4316 146.494 12.2651 147.16 12.2651C147.993 12.2651 148.77 12.4316 149.491 12.7091C150.212 12.9866 150.823 13.4861 151.267 14.1521C151.988 13.5971 152.709 13.1531 153.542 12.7646C154.374 12.4316 155.262 12.2651 156.15 12.2651C156.816 12.2651 157.481 12.3761 158.036 12.5426C158.647 12.7646 159.146 13.0421 159.59 13.4306C160.034 13.8191 160.367 14.263 160.589 14.8735C160.811 15.4285 160.922 16.0945 160.922 16.8159C160.922 17.0379 160.922 17.2599 160.866 17.4264C160.866 17.6484 160.811 17.8149 160.755 18.0369L159.035 27.6935H155.761L157.481 17.8704C157.537 17.7039 157.537 17.5929 157.537 17.4264V17.0379C157.537 16.483 157.37 15.9835 157.038 15.6505C156.705 15.3175 156.205 15.151 155.428 15.151C154.818 15.151 154.208 15.262 153.597 15.5395C152.987 15.7615 152.432 16.0945 151.988 16.5384L149.99 27.749H146.716L148.548 17.2599C148.603 17.0379 148.603 16.9269 148.603 16.8159C148.603 16.4829 148.548 16.2055 148.381 16.039C148.215 15.817 148.048 15.6505 147.882 15.5395C147.66 15.4285 147.438 15.3175 147.216 15.262C146.938 15.2065 146.716 15.2065 146.494 15.2065C145.829 15.2065 145.218 15.3175 144.608 15.5395C143.997 15.7615 143.442 16.0945 142.999 16.5384L141.001 27.749H137.949L139.947 16.7049C140.002 16.483 140.002 16.261 140.002 16.0945C140.002 15.928 140.002 15.7615 140.058 15.595C140.058 15.262 140.002 14.9845 139.947 14.6515C139.891 14.374 139.78 14.0411 139.669 13.7081L142.888 12.3206C142.999 12.5981 143.11 12.8756 143.165 13.0976C143.221 13.2641 143.276 13.4861 143.332 13.8191Z" fill="black"/>
<path d="M166.748 22.3099C166.748 22.8648 166.859 23.3643 167.026 23.6973C167.192 24.0303 167.47 24.3633 167.803 24.5853C168.136 24.8073 168.524 24.9737 168.912 25.0292C169.356 25.0847 169.8 25.1402 170.3 25.1402C171.077 25.1402 171.742 25.0292 172.408 24.7518C173.074 24.5298 173.629 24.0858 174.184 23.5308L174.35 23.3643L177.069 24.5853L176.792 24.9182C175.904 25.9727 174.905 26.8052 173.74 27.3046C172.575 27.8041 171.299 28.0261 169.911 28.0261C168.912 28.0261 168.025 27.9151 167.248 27.6931C166.471 27.4711 165.805 27.1381 165.25 26.6942C164.695 26.2502 164.251 25.6397 163.974 24.9182C163.696 24.1968 163.53 23.3088 163.53 22.3099C163.53 20.9224 163.696 19.646 164.14 18.425C164.529 17.2041 165.139 16.1496 165.916 15.2062C166.693 14.2627 167.636 13.5412 168.801 12.9863C169.967 12.4313 171.299 12.1538 172.797 12.1538C173.518 12.1538 174.239 12.2648 174.961 12.4313C175.627 12.5978 176.237 12.8753 176.792 13.2083C177.291 13.5412 177.735 14.0407 178.013 14.5957C178.346 15.1507 178.457 15.8721 178.457 16.7046C178.457 17.7036 178.235 18.536 177.846 19.1465C177.458 19.757 176.903 20.2565 176.237 20.6449C175.571 21.0334 174.794 21.3109 173.907 21.4774C173.019 21.6439 172.075 21.7549 171.077 21.8104L166.748 22.3099ZM167.137 19.3685L171.409 19.091C171.853 19.091 172.242 19.0355 172.741 18.98C173.185 18.9245 173.574 18.8135 173.962 18.647C174.35 18.4805 174.628 18.2585 174.85 17.9256C175.072 17.6481 175.183 17.2596 175.183 16.7601C175.183 16.4271 175.072 16.0941 174.905 15.9276C174.683 15.7057 174.461 15.5392 174.128 15.4282C173.851 15.3172 173.518 15.2617 173.185 15.2062C172.852 15.1507 172.519 15.1507 172.297 15.1507C170.966 15.1507 169.8 15.5392 168.912 16.3716C168.025 17.1486 167.414 18.1475 167.137 19.3685Z" fill="black"/>
<path d="M185.171 16.483L183.229 27.6935H179.955L181.953 16.6494C182.008 16.4275 182.008 16.2055 182.064 15.9835C182.064 15.7615 182.119 15.595 182.119 15.4285C182.119 15.151 182.119 14.8735 182.064 14.596C182.008 14.3185 181.897 13.9856 181.786 13.6526L184.949 12.2651C185.06 12.5426 185.171 12.8201 185.227 12.9866C185.282 13.2086 185.393 13.4861 185.393 13.8191C185.948 13.3751 186.614 12.9866 187.335 12.7091C188.057 12.4316 188.778 12.2651 189.499 12.2651C190.276 12.2651 190.997 12.3761 191.663 12.6536C192.329 12.9311 192.884 13.2641 193.328 13.7636C193.772 14.2076 194.16 14.7625 194.382 15.373C194.66 15.9835 194.771 16.6494 194.771 17.3709C194.771 17.7039 194.715 18.0369 194.66 18.3699L192.995 27.749H189.721L191.441 18.2589C191.441 18.1479 191.497 18.0369 191.497 17.9259V17.5929C191.497 16.8714 191.275 16.261 190.831 15.8725C190.387 15.4285 189.777 15.262 189.055 15.262C188.334 15.262 187.668 15.373 187.058 15.6505C186.336 15.7615 185.726 16.0945 185.171 16.483Z" fill="black"/>
<path d="M199.543 15.2619H197.823L198.267 12.598H199.987L200.542 9.60117L204.038 8.65771L203.261 12.598H206.146L204.87 15.2619H202.817L201.263 23.753C201.263 23.8085 201.208 23.9195 201.208 23.975V24.197C201.208 24.8075 201.596 25.1405 202.428 25.1405H203.927L203.483 27.6934C203.15 27.7489 202.817 27.8599 202.484 27.9154C202.151 27.9709 201.818 28.0264 201.485 28.0264C200.875 28.0264 200.32 27.9154 199.876 27.7489C199.432 27.5824 199.044 27.3049 198.766 26.9719C198.489 26.6389 198.267 26.2504 198.1 25.862C197.934 25.418 197.878 24.974 197.878 24.4745C197.878 24.197 197.934 23.9195 197.989 23.6421L199.543 15.2619Z" fill="black"/>
<path d="M219.852 14.6515L217.522 16.5384C217.189 16.15 216.8 15.817 216.356 15.484C215.913 15.2065 215.191 15.04 214.248 15.04C213.97 15.04 213.637 15.04 213.304 15.0955C212.972 15.151 212.694 15.2065 212.417 15.373C212.139 15.484 211.917 15.6505 211.751 15.8725C211.584 16.0945 211.473 16.3165 211.473 16.6494C211.473 17.0934 211.695 17.4264 212.084 17.6484C212.472 17.8704 212.972 18.1479 213.582 18.3144C214.192 18.5364 214.858 18.7029 215.524 18.9248C216.245 19.1468 216.911 19.3688 217.466 19.7018C218.077 20.0348 218.576 20.4233 218.964 20.8673C219.353 21.3667 219.575 21.9772 219.575 22.6987C219.575 23.6421 219.353 24.4746 218.964 25.1406C218.576 25.8065 218.021 26.3615 217.355 26.8055C216.689 27.2495 215.968 27.527 215.191 27.749C214.359 27.9709 213.582 28.0264 212.805 28.0264C211.362 28.0264 210.142 27.749 209.032 27.194C207.922 26.639 207.145 25.8065 206.701 24.6411L209.365 23.1982C209.809 23.9751 210.364 24.5301 211.085 24.7521C211.806 24.9741 212.528 25.1406 213.36 25.1406C214.248 25.1406 214.969 24.9741 215.524 24.6966C216.079 24.4191 216.356 23.9196 216.356 23.2537C216.356 22.8097 216.134 22.4767 215.746 22.1992C215.358 21.9217 214.858 21.6997 214.248 21.5332C213.637 21.3112 213.027 21.1447 212.306 20.9228C211.64 20.7563 210.974 20.4788 210.364 20.2013C209.753 19.8683 209.254 19.4798 208.865 18.9803C208.477 18.4809 208.255 17.8149 208.255 16.9824C208.255 16.039 208.477 15.3175 208.865 14.707C209.254 14.0966 209.809 13.5971 210.419 13.2641C211.085 12.8756 211.751 12.6536 212.528 12.4871C213.304 12.3206 214.026 12.2651 214.747 12.2651C215.857 12.2651 216.856 12.4871 217.744 12.8756C218.632 13.2641 219.353 13.8746 219.852 14.6515Z" fill="black"/>
<path d="M223.681 24.4189C224.181 24.4189 224.569 24.5854 224.957 24.9739C225.29 25.3069 225.512 25.7509 225.512 26.2504C225.512 26.7498 225.346 27.1938 225.013 27.5268C224.68 27.8598 224.236 28.0263 223.737 28.0263C223.237 28.0263 222.793 27.8598 222.405 27.5268C222.072 27.1938 221.85 26.7498 221.85 26.2504C221.85 25.7509 222.016 25.3069 222.405 24.9739C222.738 24.5854 223.182 24.4189 223.681 24.4189Z" fill="black"/>
<path d="M236.61 12.2095C237.665 12.2095 238.608 12.376 239.44 12.709C240.273 13.0419 240.994 13.6524 241.66 14.4849L239.274 16.4828C238.996 16.2053 238.774 15.9833 238.552 15.8168C238.331 15.6503 238.109 15.4838 237.831 15.3728C237.554 15.2618 237.332 15.2063 237.054 15.1508C236.777 15.0953 236.444 15.0953 236.055 15.0953C235.112 15.0953 234.335 15.2618 233.614 15.6503C232.893 16.0388 232.282 16.4828 231.838 17.0933C231.339 17.7037 231.006 18.4252 230.728 19.2022C230.451 19.9791 230.34 20.8116 230.34 21.6441C230.34 22.643 230.617 23.4755 231.172 24.086C231.727 24.7519 232.671 25.0849 234.058 25.0849C234.668 25.0849 235.334 24.9739 235.944 24.8074C236.61 24.5854 237.221 24.1969 237.776 23.642L239.551 25.6954C238.663 26.5278 237.72 27.1383 236.721 27.4713C235.723 27.8043 234.724 28.0263 233.669 28.0263C232.56 28.0263 231.616 27.8598 230.784 27.5823C230.007 27.3048 229.341 26.8608 228.786 26.3059C228.287 25.7509 227.898 25.1404 227.621 24.4189C227.399 23.6975 227.288 22.865 227.288 21.977C227.288 20.5341 227.51 19.2022 227.898 18.0367C228.342 16.8158 228.897 15.8168 229.73 14.9289C230.506 14.0964 231.505 13.4304 232.615 12.9309C233.836 12.487 235.168 12.2095 236.61 12.2095Z" fill="black"/>
<path d="M249.207 28.0263C248.319 28.0263 247.486 27.9153 246.765 27.6933C245.988 27.4713 245.322 27.1383 244.767 26.6388C244.213 26.1949 243.769 25.6399 243.436 24.9184C243.103 24.2524 242.936 23.42 242.936 22.532C242.936 21.1446 243.103 19.8681 243.491 18.5917C243.88 17.3707 244.434 16.2608 245.156 15.3173C245.933 14.3739 246.821 13.5969 247.986 13.0419C249.096 12.487 250.427 12.2095 251.981 12.2095C252.869 12.2095 253.701 12.3205 254.478 12.598C255.255 12.8199 255.921 13.2084 256.476 13.7079C257.031 14.2074 257.475 14.8179 257.808 15.5393C258.141 16.2608 258.307 17.0933 258.307 17.9812C258.307 19.3132 258.085 20.5896 257.697 21.8105C257.253 23.0315 256.698 24.0859 255.921 25.0294C255.144 25.9729 254.201 26.6943 253.035 27.2493C251.87 27.7488 250.594 28.0263 249.207 28.0263ZM255.366 18.2032C255.366 17.0933 255.033 16.3163 254.312 15.8168C253.59 15.3728 252.702 15.0953 251.648 15.0953C250.649 15.0953 249.817 15.2618 249.096 15.7058C248.374 16.0943 247.764 16.5938 247.32 17.2043C246.876 17.8147 246.488 18.5362 246.266 19.3687C246.044 20.2011 245.933 21.0336 245.933 21.9215C245.933 22.532 245.988 23.0315 246.155 23.4755C246.321 23.864 246.543 24.1969 246.876 24.4744C247.209 24.6964 247.597 24.8629 248.041 24.9739C248.485 25.0849 249.04 25.1404 249.651 25.1404C250.649 25.1404 251.482 24.9184 252.203 24.5299C252.924 24.1414 253.535 23.5865 253.979 22.976C254.423 22.31 254.811 21.5886 255.033 20.7561C255.2 19.9236 255.366 19.0912 255.366 18.2032Z" fill="black"/>
<path d="M265.41 13.8191C265.965 13.3751 266.63 12.9866 267.241 12.7091C267.907 12.4316 268.573 12.2651 269.238 12.2651C270.071 12.2651 270.848 12.4316 271.569 12.7091C272.29 12.9866 272.901 13.4861 273.345 14.1521C274.066 13.5971 274.787 13.1531 275.62 12.7646C276.452 12.4316 277.34 12.2651 278.228 12.2651C278.894 12.2651 279.56 12.3761 280.115 12.5426C280.725 12.7646 281.224 13.0421 281.668 13.4306C282.112 13.8191 282.445 14.263 282.667 14.8735C282.889 15.4285 283 16.0945 283 16.8159C283 17.0379 283 17.2599 282.945 17.4264C282.945 17.6484 282.889 17.8149 282.834 18.0369L281.113 27.6935H277.839L279.56 17.8704C279.615 17.7039 279.615 17.5929 279.615 17.4264V17.0379C279.615 16.483 279.449 15.9835 279.116 15.6505C278.783 15.3175 278.283 15.151 277.506 15.151C276.896 15.151 276.286 15.262 275.675 15.5395C275.065 15.7615 274.51 16.0945 274.066 16.5384L272.068 27.749H268.795L270.681 17.2599C270.737 17.0379 270.737 16.9269 270.737 16.8159C270.737 16.4829 270.681 16.2055 270.515 16.039C270.348 15.817 270.182 15.6505 270.015 15.5395C269.793 15.4285 269.571 15.3175 269.349 15.262C269.072 15.2065 268.85 15.2065 268.628 15.2065C267.962 15.2065 267.352 15.3175 266.741 15.5395C266.131 15.7615 265.576 16.0945 265.132 16.5384L263.135 27.749H260.027L262.025 16.7049C262.08 16.483 262.08 16.261 262.08 16.0945C262.08 15.928 262.08 15.7615 262.136 15.595C262.136 15.262 262.08 14.9845 262.025 14.6515C261.969 14.374 261.858 14.0411 261.747 13.7081L264.966 12.3206C265.077 12.5981 265.188 12.8756 265.243 13.0976C265.299 13.2641 265.354 13.4861 265.41 13.8191Z" fill="black"/>
</svg>
